#tb 0: 1/25
#media_type 0: video
#codec_id 0: rawvideo
#dimensions 0: 832x480
#sar 0: 0/1
0,          0,          0,        1,   599040, 0x6b61371d
0,          1,          1,        1,   599040, 0xd38a2e50
0,          2,          2,        1,   599040, 0xe8eb34bd
0,          3,          3,        1,   599040, 0xb3ae6401
